<?xml version="1.0" encoding="UTF-8" standalone="no"?>
<!-- Generator: Adobe Illustrator 27.5.0, SVG Export Plug-In . SVG Version: 6.00 Build 0)  -->

<svg
   version="1.1"
   x="0px"
   y="0px"
   viewBox="0 0 205.15099 414.13223"
   xml:space="preserve"
   id="svg114"
   width="205.15099"
   height="414.13223"
   xmlns:xlink="http://www.w3.org/1999/xlink"
   xmlns="http://www.w3.org/2000/svg"
   xmlns:svg="http://www.w3.org/2000/svg"><defs
   id="defs114" />
<g
   id="g111"
   transform="translate(-844.55857,323.9291)">
		<defs
   id="defs1"><rect
     id="SVGID_1_"
     width="750"
     height="500"
     x="0"
     y="0" /></defs>
		<clipPath
   id="SVGID_00000120556350596265205750000016078548296908929721_">
			<use
   xlink:href="#SVGID_1_"
   style="overflow:visible"
   id="use1" />
		</clipPath>
		
			
		
		
		
		
		
		
		
		
		
		
		
		
		
		
		
		
		
		
		
		
		
		
		
		
		
		
		
		
		
		
		<g
   id="g124"><g
     clip-path="url(#SVGID_00000120556350596265205750000016078548296908929721_)"
     id="g7"
     transform="matrix(0.82826449,0,0,0.82826449,844.55857,-323.9291)">
			<path
   style="fill:#fffaef"
   d="m 141.086,458.634 c -18.782,0 -32.82,-7.042 -39.529,-19.83 -7.666,-14.611 -4.93,-34.547 7.145,-52.029 12.598,-18.241 16.916,-36.028 12.486,-51.433 -3.326,-11.567 -10.398,-17.78 -10.469,-17.842 -0.524,-0.454 -0.582,-1.247 -0.129,-1.771 0.453,-0.524 1.246,-0.583 1.77,-0.128 0.313,0.27 7.709,6.77 11.24,19.047 3.238,11.264 3.641,29.697 -12.834,53.553 -11.367,16.457 -14.109,35.863 -6.987,49.438 6.255,11.921 19.504,18.486 37.308,18.486 0.693,0 1.254,0.563 1.254,1.254 -0.001,0.694 -0.562,1.255 -1.255,1.255 z"
   id="path3" />
			<path
   style="fill:#afd2aa"
   d="m 58.1,290.236 c 8.934,29.122 36.582,46.469 61.756,38.748 25.172,-7.723 38.337,-37.591 29.404,-66.713 -8.934,-29.122 -36.584,-46.47 -61.756,-38.747 -25.174,7.723 -38.338,37.591 -29.404,66.712 z"
   id="path4" />
			<polygon
   style="fill:#afd2aa"
   points="115.034,341.781 116.51,321.289 132.059,335.509 "
   id="polygon4" />
			<path
   style="fill:#fffaef"
   d="m 90.594,231.72 c 0,0 11.271,-8.087 33.999,4.698 12.294,6.918 14.671,18.632 14.794,22.078 0.123,3.446 -14.649,-21.438 -31.687,-23.167 -11.068,-1.124 -23.106,-2.701 -17.106,-3.609 z"
   id="path5" />
			<path
   style="fill:#fffaef"
   d="m 141.227,264.881 c 0,0 4.912,16.445 0.511,18.426 -4.402,1.981 -5.613,-27.383 -0.511,-18.426 z"
   id="path6" />
			<path
   style="fill:#93c7a9"
   d="m 59.099,263.177 c 0,0 4.167,48.455 41.388,47.775 37.221,-0.681 43.076,-9.599 46.004,-17.895 2.927,-8.296 2.291,21.814 -26.666,33.524 l 7.428,9.418 -10.416,3.782 v -11.944 c 0,0 -26.131,2.881 -41.288,-14.22 -15.158,-17.1 -21.469,-45.847 -16.45,-50.44 z"
   id="path7" />
		</g><g
     clip-path="url(#SVGID_00000120556350596265205750000016078548296908929721_)"
     id="g12"
     transform="matrix(0.82826449,0,0,0.82826449,844.55857,-323.9291)">
			<path
   style="fill:#fffaef"
   d="m 114.445,575.877 c -6.332,0.002 -12.516,-2.838 -17.092,-7.255 -10.076,-9.731 -13.735,-27.762 2.043,-44.363 0.858,-0.903 1.689,-1.737 2.496,-2.511 -1.566,-1.88 -2.686,-4.151 -3.352,-6.796 -5.146,-20.465 18.566,-57.092 19.58,-58.642 0.378,-0.578 1.156,-0.74 1.736,-0.364 0.58,0.38 0.742,1.157 0.363,1.736 -0.241,0.37 -24.127,37.257 -19.246,56.66 0.565,2.246 1.479,4.141 2.76,5.711 11.17,-9.857 16.834,-6.945 18.422,-5.678 2.837,2.26 3.308,6.67 1.072,10.035 -2.411,3.63 -8.057,5.834 -16.673,1.134 -1.063,-0.58 -2.034,-1.249 -2.907,-2.005 -0.786,0.754 -1.598,1.57 -2.434,2.448 -14.6,15.361 -11.332,31.933 -2.117,40.828 7.296,7.046 19.469,10.223 28.953,0.552 0.486,-0.494 1.28,-0.502 1.774,-0.018 0.495,0.485 0.503,1.279 0.017,1.774 -4.656,4.752 -10.078,6.754 -15.395,6.754 z m -8.938,-54.047 c 0.681,0.562 1.431,1.064 2.25,1.512 6.054,3.301 11.056,3.183 13.382,-0.32 1.496,-2.254 1.251,-5.253 -0.547,-6.686 -2.382,-1.899 -7.475,-1.205 -15.085,5.494 z"
   id="path8" />
			<path
   style="fill:#f0afb6"
   d="m 94.637,408.792 c -10.883,28.452 0.232,59.14 24.826,68.549 24.593,9.406 53.352,-6.032 64.234,-34.483 10.883,-28.449 -0.232,-59.142 -24.826,-68.547 -24.593,-9.409 -53.351,6.03 -64.234,34.481 z"
   id="path9" />
			<polygon
   style="fill:#f0afb6"
   points="99.563,472.88 114.64,466.465 110.572,481.964 "
   id="polygon9" />
			<path
   style="fill:#f58981"
   d="m 119.824,386.965 c 0,0 5.336,16.294 -1.879,33.545 -7.214,17.251 6.273,50.813 33.561,39.835 27.288,-10.978 21.015,-13.487 24.151,-12.232 3.137,1.254 -9.723,19.412 -23.838,24.448 -14.114,5.036 -30.229,5.054 -38.78,0 l -1.978,7.536 -7.545,-5.883 5.92,-5.536 c 0,0 -10.625,-7.788 -14.389,-22.332 l 5.959,-4.194 -4.392,-4.076 c 0.002,-0.001 23.21,-14.116 23.21,-51.111 z"
   id="path10" />
			<path
   style="fill:#fffaef"
   d="m 167.895,384.156 c 0,0 -22.832,-19.512 -44.349,-4.457 -21.516,15.056 14.693,-5.421 24.887,-0.467 10.194,4.953 30.512,11.583 19.462,4.924 z"
   id="path11" />
			<path
   style="fill:#fffaef"
   d="m 180.367,399.773 c 0,0 -2.512,-8.925 -6.693,-9.275 -4.182,-0.349 4.543,16.221 6.693,9.275 z"
   id="path12" />
		</g><g
     clip-path="url(#SVGID_00000120556350596265205750000016078548296908929721_)"
     id="g17"
     transform="matrix(0.82826449,0,0,0.82826449,844.55857,-323.9291)">
			<path
   style="fill:#fffaef"
   d="m 59.098,550.172 c -0.646,0 -1.195,-0.496 -1.25,-1.152 -0.057,-0.69 0.458,-1.297 1.148,-1.353 11.277,-0.925 17.928,-9.25 21.521,-16.073 4.346,-8.251 6.758,-19.28 6.452,-29.497 -0.239,-7.998 -2.011,-14.233 -4.83,-17.748 -4.67,4.765 -10.19,5.036 -13.682,3.129 -2.137,-1.167 -3.212,-3.068 -2.738,-4.845 0.418,-1.565 2.366,-4.161 10.684,-3.981 2.059,0.045 3.938,0.766 5.59,2.074 19.857,-24.212 -0.484,-62.744 -0.697,-63.138 -0.328,-0.61 -0.1,-1.37 0.51,-1.7 0.611,-0.327 1.371,-0.099 1.7,0.51 0.229,0.427 5.638,10.564 8.312,23.97 3.42,17.143 0.645,31.659 -8.024,42.121 3.344,3.97 5.425,10.814 5.685,19.532 0.323,10.791 -2.133,21.995 -6.74,30.742 -5.571,10.582 -13.71,16.601 -23.535,17.405 -0.038,0.002 -0.072,0.004 -0.106,0.004 z m 16.474,-69.021 c -5.393,0 -7.213,1.316 -7.429,2.128 -0.16,0.6 0.463,1.419 1.517,1.995 1.986,1.083 6.413,1.686 10.689,-2.685 -1.209,-0.905 -2.551,-1.397 -4.002,-1.431 -0.266,-0.005 -0.525,-0.007 -0.775,-0.007 z"
   id="path13" />
			<path
   style="fill:#badace"
   d="m 24.694,408.564 c 13.801,27.156 44.017,39.5 67.49,27.571 23.475,-11.929 31.315,-43.613 17.517,-70.77 C 95.9,338.209 65.683,325.865 42.21,337.794 18.736,349.723 10.894,381.407 24.694,408.564 Z"
   id="path14" />
			<polygon
   style="fill:#badace"
   points="85.324,448.112 86.893,431.801 98.563,442.779 "
   id="polygon14" />
			<path
   style="fill:#8fc8cb"
   d="m 112.131,382.338 c 0,0 -10.182,24.057 -28.375,33.153 -18.191,9.097 -53.007,-12.132 -57.712,-13.63 -4.704,-1.503 9.619,32.201 43.284,34.844 19.089,1.496 17.094,0 17.094,0 l 0.785,7.643 6.9,-2.196 -4.4,-5.446 c 0,-0.001 33.84,-19.715 22.424,-54.368 z"
   id="path15" />
			<path
   style="fill:#fffaef"
   d="m 97.881,361.342 c 0,0 -8.834,-18.362 -25.643,-21.27 -16.811,-2.91 -32.02,3.791 -30.82,6.255 1.201,2.466 22.137,-6.532 33.081,-0.737 10.946,5.796 25.205,18.956 23.382,15.752 z"
   id="path16" />
			<path
   style="fill:#fffaef"
   d="m 103.68,365.895 c 0,0 5.018,9.199 3.422,10.454 -1.596,1.255 -12.448,-16.808 -3.422,-10.454 z"
   id="path17" />
		</g><g
     clip-path="url(#SVGID_00000120556350596265205750000016078548296908929721_)"
     id="g33"
     transform="matrix(0.82826449,0,0,0.82826449,844.55857,-323.9291)">
			<path
   style="fill:#fffaef"
   d="m 186.1,269.27 c -0.354,0 -0.705,-0.149 -0.953,-0.438 -0.451,-0.525 -0.391,-1.318 0.135,-1.77 10.359,-8.886 15.58,-16.619 15.964,-23.643 0.435,-7.962 -5.513,-14.311 -11.265,-20.449 -8.127,-8.676 -16.531,-17.647 -7.136,-31.064 2.317,-3.31 4.865,-5.696 7.521,-7.324 -3,-3.481 -5.24,-7.538 -6.699,-12.149 -7.904,-24.968 9.434,-57.398 10.176,-58.766 0.33,-0.609 1.092,-0.835 1.701,-0.505 0.608,0.33 0.834,1.092 0.505,1.701 -0.177,0.326 -17.573,32.872 -9.987,56.819 1.412,4.461 3.617,8.366 6.594,11.692 7.195,-3.218 14.915,-1.408 20.881,2.338 4.82,3.028 9.01,7.911 7.281,10.996 -1.773,3.164 -8.059,2.095 -18.682,-3.179 -3.863,-1.918 -7.193,-4.266 -9.982,-7.031 -2.565,1.449 -5.028,3.67 -7.253,6.846 -8.228,11.748 -1.212,19.237 6.912,27.909 6.111,6.523 12.432,13.268 11.938,22.3 -0.423,7.744 -5.929,16.056 -16.835,25.412 -0.237,0.203 -0.527,0.305 -0.816,0.305 z m 8.495,-83.912 c 2.46,2.305 5.349,4.283 8.655,5.923 11.381,5.65 14.959,4.949 15.377,4.201 0.527,-0.941 -1.512,-4.557 -6.427,-7.644 -5.04,-3.166 -11.487,-4.775 -17.605,-2.48 z"
   id="path29" />
			<path
   style="fill:#e9c09a"
   d="m 152.419,71.938 c -2.254,30.378 17.206,56.583 43.464,58.532 26.259,1.949 49.373,-21.099 51.627,-51.476 2.255,-30.377 -17.205,-56.583 -43.464,-58.532 -26.259,-1.949 -49.373,21.099 -51.627,51.476 z"
   id="path30" />
			<polygon
   style="fill:#e9c09a"
   points="176.063,135.292 193.633,112.532 195.469,140.852 "
   id="polygon30" />
			<path
   style="fill:#fffaef"
   d="m 231.808,48.795 c 0,0 -8.612,-23.235 -34.276,-21.277 -19.605,1.497 14.839,-0.771 23.902,12.447 10.783,15.723 13.747,16.33 10.374,8.83 z"
   id="path31" />
			<path
   style="fill:#fffaef"
   d="m 237.039,56.996 c 0,0 3.766,10.437 1.643,14.872 -1.126,2.35 -10.819,-21.986 -1.643,-14.872 z"
   id="path32" />
			<path
   style="fill:#e19b81"
   d="m 166.778,43.892 c 0,0 -16.21,38.073 18.294,55.547 34.503,17.474 52.643,3.139 51.5,5.982 -1.143,2.843 -20.281,25.164 -47.136,21.271 -23.871,-3.462 -32.892,-34.221 -32.243,-54.591 0.42,-13.22 9.854,-35.413 9.585,-28.209 z"
   id="path33" />
			<polygon
   style="fill:#e19b81"
   points="193.889,125.878 192.034,137.642 179.977,134.145 188.059,122.4 "
   id="polygon33" />
		</g><g
     clip-path="url(#SVGID_00000120556350596265205750000016078548296908929721_)"
     id="g38"
     transform="matrix(0.82826449,0,0,0.82826449,844.55857,-323.9291)">
			<path
   style="fill:#fffaef"
   d="m 49.101,619.074 c -0.344,0.082 -0.72,0.019 -1.028,-0.204 -0.562,-0.406 -0.688,-1.191 -0.281,-1.753 8.003,-11.055 11.278,-19.792 10.015,-26.711 -1.433,-7.844 -8.695,-12.632 -15.72,-17.262 -9.925,-6.544 -20.188,-13.309 -14.178,-28.546 1.482,-3.759 3.404,-6.673 5.607,-8.875 -3.728,-2.686 -6.852,-6.11 -9.346,-10.253 -13.505,-22.439 -4.201,-58.016 -3.798,-59.52 0.179,-0.669 0.867,-1.066 1.537,-0.887 0.668,0.179 1.065,0.867 0.887,1.535 -0.096,0.359 -9.43,36.063 3.527,57.582 2.413,4.009 5.467,7.293 9.137,9.835 6.247,-4.807 14.177,-4.845 20.851,-2.592 5.393,1.82 10.605,5.593 9.643,8.997 -0.987,3.49 -7.349,3.914 -18.908,1.262 -4.204,-0.965 -7.989,-2.474 -11.345,-4.512 -2.157,2.006 -4.035,4.739 -5.458,8.348 -5.264,13.341 3.304,18.989 13.225,25.529 7.464,4.92 15.182,10.007 16.807,18.905 1.394,7.63 -2.024,16.995 -10.45,28.636 -0.184,0.253 -0.443,0.419 -0.724,0.486 z M 37.81,535.493 c 2.929,1.668 6.199,2.918 9.797,3.743 12.385,2.843 15.7,1.327 15.933,0.503 0.294,-1.039 -2.531,-4.079 -8.031,-5.937 -5.64,-1.904 -12.284,-1.967 -17.699,1.691 z"
   id="path34" />
			<path
   style="fill:#e9c09a"
   d="m -29.634,435.023 c 4.887,30.067 29.917,51.016 55.906,46.793 25.99,-4.223 43.098,-32.022 38.211,-62.089 -4.886,-30.066 -29.916,-51.017 -55.906,-46.793 -25.99,4.224 -43.098,32.023 -38.211,62.089 z"
   id="path35" />
			<polygon
   style="fill:#e9c09a"
   points="8.121,491.123 19.904,464.896 28.289,492.008 "
   id="polygon35" />
			<path
   style="fill:#fffaef"
   d="m 42.177,394.018 c 0,0 -13.79,-20.588 -38.291,-12.704 -18.717,6.023 14.251,-4.208 26.145,6.534 14.15,12.779 17.173,12.677 12.146,6.17 z"
   id="path36" />
			<path
   style="fill:#fffaef"
   d="m 49.175,400.774 c 0,0 6.094,9.271 5.063,14.079 -0.548,2.549 -15.644,-18.859 -5.063,-14.079 z"
   id="path37" />
			<path
   style="fill:#e19b81"
   d="m -22.205,404.402 c 0,0 -6.893,40.803 30.733,49.756 37.625,8.953 51.925,-9.215 51.477,-6.184 -0.449,3.031 -13.859,29.197 -40.882,31.669 -24.021,2.196 -39.96,-25.614 -44.076,-45.575 -2.672,-12.953 1.33,-36.734 2.748,-29.666 z"
   id="path38" />
			<polygon
   style="fill:#e19b81"
   points="23.263,477.815 24.2,489.686 11.661,489.096 16.783,475.791 "
   id="polygon38" />
		</g><g
     clip-path="url(#SVGID_00000120556350596265205750000016078548296908929721_)"
     id="g76"
     transform="matrix(0.82826449,0,0,0.82826449,844.55857,-323.9291)">
			<path
   style="fill:#fffaef"
   d="m 58.445,234.877 c -6.332,0.002 -12.516,-2.838 -17.092,-7.255 -10.076,-9.732 -13.735,-27.762 2.043,-44.363 0.858,-0.903 1.689,-1.737 2.496,-2.511 -1.565,-1.88 -2.686,-4.151 -3.352,-6.796 -5.146,-20.465 18.566,-57.092 19.58,-58.643 0.378,-0.578 1.156,-0.74 1.736,-0.364 0.58,0.38 0.742,1.157 0.363,1.736 -0.241,0.37 -24.127,37.257 -19.246,56.66 0.565,2.246 1.479,4.141 2.76,5.711 11.17,-9.857 16.834,-6.945 18.422,-5.678 2.837,2.26 3.308,6.67 1.072,10.035 -2.411,3.63 -8.057,5.834 -16.673,1.134 -1.063,-0.58 -2.034,-1.249 -2.907,-2.005 -0.786,0.754 -1.598,1.57 -2.434,2.448 -14.6,15.361 -11.332,31.933 -2.117,40.828 7.296,7.046 19.469,10.223 28.953,0.552 0.486,-0.494 1.28,-0.502 1.774,-0.018 0.495,0.485 0.503,1.279 0.017,1.774 -4.656,4.753 -10.078,6.755 -15.395,6.755 z M 49.507,180.83 c 0.681,0.562 1.431,1.064 2.25,1.512 6.054,3.301 11.056,3.183 13.382,-0.32 1.496,-2.254 1.251,-5.253 -0.547,-6.686 -2.382,-1.9 -7.475,-1.205 -15.085,5.494 z"
   id="path72" />
			<path
   style="fill:#f0afb6"
   d="m 38.637,67.792 c -10.883,28.452 0.232,59.14 24.826,68.549 24.593,9.406 53.352,-6.032 64.234,-34.483 C 138.58,73.409 127.465,42.716 102.871,33.311 78.278,23.902 49.519,39.341 38.637,67.792 Z"
   id="path73" />
			<polygon
   style="fill:#f0afb6"
   points="43.563,131.88 58.64,125.465 54.572,140.964 "
   id="polygon73" />
			<path
   style="fill:#f58981"
   d="m 63.824,45.965 c 0,0 5.336,16.294 -1.879,33.545 -7.214,17.251 6.273,50.812 33.562,39.835 27.288,-10.979 21.015,-13.487 24.151,-12.232 3.137,1.254 -9.723,19.412 -23.838,24.448 -14.114,5.036 -30.229,5.054 -38.78,0 l -1.977,7.536 -7.545,-5.883 5.92,-5.536 c 0,0 -10.625,-7.788 -14.389,-22.332 l 5.959,-4.194 -4.392,-4.076 c 0,-10e-4 23.208,-14.116 23.208,-51.111 z"
   id="path74" />
			<path
   style="fill:#fffaef"
   d="m 111.896,43.156 c 0,0 -22.832,-19.512 -44.349,-4.457 -21.516,15.056 14.693,-5.421 24.887,-0.467 10.193,4.953 30.511,11.582 19.462,4.924 z"
   id="path75" />
			<path
   style="fill:#fffaef"
   d="m 124.367,58.773 c 0,0 -2.512,-8.925 -6.693,-9.275 -4.182,-0.349 4.543,16.221 6.693,9.275 z"
   id="path76" />
		</g><g
     clip-path="url(#SVGID_00000120556350596265205750000016078548296908929721_)"
     id="g81"
     transform="matrix(0.82826449,0,0,0.82826449,844.55857,-323.9291)">
			<path
   style="fill:#fffaef"
   d="m 3.098,209.172 c -0.646,0 -1.195,-0.496 -1.25,-1.152 -0.057,-0.69 0.458,-1.297 1.148,-1.354 11.277,-0.925 17.928,-9.25 21.521,-16.073 4.346,-8.251 6.758,-19.28 6.452,-29.497 -0.239,-7.998 -2.011,-14.233 -4.83,-17.748 -4.67,4.765 -10.19,5.036 -13.682,3.129 -2.137,-1.167 -3.212,-3.068 -2.738,-4.845 0.418,-1.565 2.366,-4.161 10.684,-3.981 2.059,0.045 3.938,0.766 5.59,2.074 19.857,-24.212 -0.484,-62.744 -0.697,-63.138 -0.328,-0.61 -0.1,-1.37 0.51,-1.7 0.611,-0.327 1.371,-0.099 1.7,0.51 0.229,0.427 5.638,10.564 8.311,23.97 3.42,17.143 0.645,31.659 -8.024,42.121 3.344,3.97 5.425,10.813 5.685,19.532 0.323,10.791 -2.133,21.995 -6.74,30.742 -5.571,10.582 -13.71,16.601 -23.535,17.405 -0.037,0.003 -0.071,0.005 -0.105,0.005 z m 16.474,-69.021 c -5.393,0 -7.213,1.316 -7.429,2.128 -0.16,0.6 0.463,1.419 1.517,1.995 1.986,1.083 6.413,1.687 10.689,-2.685 -1.209,-0.905 -2.551,-1.397 -4.002,-1.431 -0.266,-0.005 -0.525,-0.007 -0.775,-0.007 z"
   id="path77" />
			<path
   style="fill:#988192"
   d="m -31.306,67.563 c 13.801,27.156 44.017,39.5 67.49,27.571 C 59.659,83.206 67.5,51.521 53.701,24.365 39.9,-2.791 9.684,-15.135 -13.79,-3.206 -37.264,8.723 -45.105,40.407 -31.306,67.563 Z"
   id="path78" />
			<polygon
   style="fill:#988192"
   points="29.324,107.112 30.893,90.801 42.563,101.779 "
   id="polygon78" />
			<path
   style="fill:#74487a"
   d="m 56.131,41.338 c 0,0 -10.182,24.057 -28.375,33.153 -18.191,9.097 -53.007,-12.132 -57.712,-13.63 -4.704,-1.503 9.619,32.201 43.284,34.844 19.089,1.496 17.094,0 17.094,0 l 0.785,7.643 6.9,-2.196 -4.4,-5.446 c 0,-0.001 33.84,-19.715 22.424,-54.368 z"
   id="path79" />
			<path
   style="fill:#fffaef"
   d="m 41.881,20.342 c 0,0 -8.834,-18.362 -25.643,-21.27 -16.811,-2.91 -32.021,3.791 -30.82,6.255 1.201,2.466 22.137,-6.532 33.081,-0.737 10.946,5.796 25.205,18.956 23.382,15.752 z"
   id="path80" />
			<path
   style="fill:#fffaef"
   d="m 47.68,24.895 c 0,0 5.018,9.199 3.422,10.454 C 49.506,36.604 38.654,18.541 47.68,24.895 Z"
   id="path81" />
		</g></g>
	</g>


</svg>
