<?xml version="1.0" encoding="UTF-8" standalone="no"?>
<!-- Generator: Adobe Illustrator 27.5.0, SVG Export Plug-In . SVG Version: 6.00 Build 0)  -->

<svg
   version="1.1"
   x="0px"
   y="0px"
   viewBox="0 0 211.94182 414.13223"
   xml:space="preserve"
   id="svg114"
   width="211.94182"
   height="414.13223"
   xmlns:xlink="http://www.w3.org/1999/xlink"
   xmlns="http://www.w3.org/2000/svg"
   xmlns:svg="http://www.w3.org/2000/svg"><defs
   id="defs114" />
<g
   id="g111"
   transform="translate(-1490.0347,324.37366)">
		<defs
   id="defs1"><rect
     id="SVGID_1_"
     width="750"
     height="500"
     x="0"
     y="0" /></defs>
		<clipPath
   id="SVGID_00000120556350596265205750000016078548296908929721_">
			<use
   xlink:href="#SVGID_1_"
   style="overflow:visible"
   id="use1" />
		</clipPath>
		
			
		
		
		
		
		
		
		
		
		
		
		
		
		
		
		
		
		
		
		
		
		
		
		
		
		
		
		
		
		
		
		<g
   id="g125"><g
     clip-path="url(#SVGID_00000120556350596265205750000016078548296908929721_)"
     id="g24"
     transform="matrix(0.82826449,0,0,0.82826449,1080.7781,-324.37366)">
			<path
   style="fill:#fffaef"
   d="m 555.702,234.117 c -0.289,0 -0.579,-0.099 -0.815,-0.302 -10.907,-9.356 -16.414,-17.668 -16.837,-25.412 -0.492,-9.032 5.828,-15.778 11.939,-22.302 8.123,-8.671 15.141,-16.161 6.914,-27.908 -2.226,-3.177 -4.689,-5.398 -7.256,-6.846 -2.787,2.765 -6.117,5.113 -9.978,7.031 -10.624,5.273 -16.908,6.343 -18.684,3.179 -1.729,-3.085 2.462,-7.967 7.282,-10.996 5.965,-3.747 13.685,-5.553 20.88,-2.34 2.978,-3.326 5.184,-7.234 6.597,-11.697 7.585,-23.962 -9.813,-56.487 -9.99,-56.813 -0.33,-0.609 -0.103,-1.371 0.506,-1.701 0.61,-0.33 1.37,-0.104 1.702,0.505 0.74,1.368 18.078,33.797 10.174,58.766 -1.459,4.61 -3.698,8.667 -6.699,12.149 2.656,1.628 5.205,4.014 7.522,7.324 9.395,13.416 0.99,22.387 -7.138,31.063 -5.751,6.139 -11.697,12.487 -11.264,20.45 0.384,7.022 5.604,14.757 15.965,23.643 0.525,0.452 0.585,1.244 0.136,1.77 -0.25,0.288 -0.603,0.437 -0.956,0.437 z M 541.18,149.124 c -4.144,0 -8.182,1.428 -11.579,3.562 -4.914,3.087 -6.953,6.704 -6.426,7.644 0.419,0.749 3.997,1.449 15.377,-4.2 3.307,-1.641 6.195,-3.619 8.654,-5.924 -1.994,-0.748 -4.021,-1.082 -6.026,-1.082 z"
   id="path20" />
			<path
   style="fill:#f0afb6"
   d="m 589.381,36.787 c 2.255,30.378 -17.204,56.583 -43.463,58.532 -26.258,1.948 -49.372,-21.099 -51.627,-51.476 -2.254,-30.377 17.205,-56.583 43.464,-58.532 26.259,-1.949 49.374,21.098 51.626,51.476 z"
   id="path21" />
			<polygon
   style="fill:#f0afb6"
   points="548.168,77.38 546.332,105.7 565.739,100.14 "
   id="polygon21" />
			<path
   style="fill:#fffaef"
   d="m 577.607,13.512 c 0,0 -8.612,-23.236 -34.275,-21.277 -19.606,1.496 14.838,-0.771 23.901,12.447 10.782,15.724 13.748,16.33 10.374,8.83 z"
   id="path22" />
			<path
   style="fill:#fffaef"
   d="m 582.838,21.713 c 0,0 3.766,10.435 1.643,14.871 -1.127,2.352 -10.818,-21.985 -1.643,-14.871 z"
   id="path23" />
			<path
   style="fill:#f58981"
   d="m 501.892,18.173 c 0,0 -8.748,40.444 28.43,51.106 37.178,10.662 52.293,-6.834 51.706,-3.827 -0.586,3.007 -17.808,27.846 -41.865,26.088 -24.055,-1.758 -39.17,-23.729 -42.37,-43.857 -2.079,-13.062 3.006,-36.635 4.099,-29.51 z"
   id="path24" />
			<polygon
   style="fill:#f58981"
   points="560.25,97.5 548.75,101.5 549.063,86.75 551.5,86.75 "
   id="polygon24" />
		</g><g
     clip-path="url(#SVGID_00000120556350596265205750000016078548296908929721_)"
     id="g27"
     transform="matrix(0.82826449,0,0,0.82826449,1080.7781,-324.37366)">
			<path
   style="fill:#fffaef"
   d="m 718.403,600.165 c -0.282,-0.063 -0.544,-0.222 -0.731,-0.473 -8.621,-11.497 -12.196,-20.805 -10.931,-28.456 1.477,-8.924 9.108,-14.141 16.487,-19.185 9.81,-6.705 18.283,-12.495 12.798,-25.747 -1.484,-3.584 -3.409,-6.285 -5.601,-8.255 -3.32,2.095 -7.08,3.666 -11.265,4.702 -11.515,2.846 -17.881,2.527 -18.929,-0.947 -1.019,-3.386 4.13,-7.244 9.492,-9.156 6.635,-2.364 14.563,-2.456 20.891,2.24 3.628,-2.602 6.628,-5.938 8.975,-9.989 12.597,-21.749 2.661,-57.272 2.558,-57.627 -0.19,-0.667 0.197,-1.36 0.862,-1.552 0.668,-0.189 1.36,0.195 1.553,0.862 0.426,1.496 10.325,36.911 -2.802,59.573 -2.424,4.185 -5.489,7.661 -9.173,10.408 2.24,2.166 4.212,5.048 5.756,8.78 6.265,15.133 -3.885,22.069 -13.699,28.778 -6.944,4.747 -14.125,9.656 -15.428,17.525 -1.147,6.938 2.274,15.619 10.463,26.54 0.415,0.555 0.301,1.341 -0.251,1.757 -0.303,0.23 -0.681,0.298 -1.025,0.222 z m 4.24,-86.12 c -4.045,-0.897 -8.297,-0.379 -12.075,0.968 -5.467,1.949 -8.241,5.038 -7.93,6.069 0.247,0.821 3.588,2.281 15.922,-0.767 3.583,-0.886 6.832,-2.192 9.732,-3.908 -1.785,-1.163 -3.692,-1.928 -5.649,-2.362 z"
   id="path25" />
			<path
   style="fill:#f0afb6"
   d="m 794.041,414.821 c -4.381,30.145 -29.056,51.51 -55.113,47.723 -26.057,-3.787 -43.627,-31.295 -39.246,-61.44 4.383,-30.143 29.058,-51.51 55.115,-47.723 26.057,3.788 43.629,31.296 39.244,61.44 z"
   id="path26" />
			<polygon
   style="fill:#f0afb6"
   points="745.012,445.52 737.083,472.768 757.233,471.546 "
   id="polygon26" />
			<path
   style="fill:#f58981"
   d="m 712.664,377.69 c 0,0 -17.304,37.588 16.68,56.053 33.984,18.464 52.532,4.659 51.308,7.468 -1.224,2.809 -23.419,23.325 -46.523,16.396 -23.103,-6.928 -33.098,-31.652 -31.86,-51.995 0.8,-13.203 10.873,-35.113 10.395,-27.922 z"
   id="path27" />
			<polygon
   style="fill:#f58981"
   points="752.446,467.779 740.354,469.192 743.854,454.86 746.234,455.389 "
   id="polygon27" />
		</g><g
     clip-path="url(#SVGID_00000120556350596265205750000016078548296908929721_)"
     id="g47"
     transform="matrix(0.82826449,0,0,0.82826449,1080.7781,-324.37366)">
			<path
   style="fill:#fcfadb"
   d="m 584.185,458.634 c -0.694,0 -1.254,-0.561 -1.254,-1.255 0,-0.691 0.56,-1.254 1.254,-1.254 17.804,0 31.053,-6.565 37.308,-18.486 7.121,-13.574 4.379,-32.98 -6.988,-49.438 -16.474,-23.855 -16.072,-42.289 -12.833,-53.553 3.529,-12.277 10.926,-18.777 11.24,-19.047 0.523,-0.455 1.316,-0.396 1.77,0.128 0.452,0.523 0.395,1.316 -0.128,1.768 v 0 c -0.071,0.062 -7.211,6.369 -10.51,17.978 -4.365,15.373 -0.035,33.111 12.525,51.299 12.074,17.482 14.812,37.418 7.146,52.029 -6.709,12.789 -20.748,19.831 -39.53,19.831 z"
   id="path43" />
			<path
   style="fill:#badace"
   d="m 667.171,290.236 c -8.933,29.122 -36.581,46.469 -61.755,38.748 -25.173,-7.723 -38.339,-37.591 -29.404,-66.713 8.934,-29.122 36.582,-46.47 61.756,-38.747 25.173,7.723 38.336,37.591 29.403,66.712 z"
   id="path44" />
			<polygon
   style="fill:#badace"
   points="608.762,321.289 593.211,335.509 610.237,341.781 "
   id="polygon44" />
			<path
   style="fill:#8fc8cb"
   d="m 586.104,246.742 c 0,0 -7.235,39 15.619,50.71 22.855,11.71 44.183,12.547 50.874,8.783 6.691,-3.765 -6.098,22.581 -42.36,19.654 l -1.476,12.537 -10.114,-5.179 5.856,-6.94 c 0,0 -18.399,-5.018 -25.201,-32.107 -8.237,-32.812 6.802,-47.458 6.802,-47.458 z"
   id="path45" />
			<path
   style="fill:#fffaef"
   d="m 626.707,228.847 c 0,0 13.07,-4.646 31.367,13.935 9.896,10.052 8.936,21.965 8.098,25.311 -0.837,3.346 -8.137,-24.656 -24.029,-31.039 -10.323,-4.146 -21.453,-8.994 -15.436,-8.207 z"
   id="path46" />
			<path
   style="fill:#fffaef"
   d="m 666.172,274.737 c 0,0 0.163,17.164 -4.613,17.847 -4.778,0.685 2.192,-27.866 4.613,-17.847 z"
   id="path47" />
		</g><g
     clip-path="url(#SVGID_00000120556350596265205750000016078548296908929721_)"
     id="g57"
     transform="matrix(0.82826449,0,0,0.82826449,1080.7781,-324.37366)">
			<path
   style="fill:#fffaef"
   d="m 610.826,575.877 c -5.316,0 -10.738,-2.002 -15.398,-6.753 -0.484,-0.495 -0.477,-1.289 0.018,-1.774 0.494,-0.484 1.289,-0.477 1.773,0.018 9.484,9.671 21.657,6.494 28.955,-0.552 9.214,-8.896 12.482,-25.467 -2.118,-40.828 -0.835,-0.878 -1.648,-1.694 -2.433,-2.448 -0.874,0.756 -1.844,1.425 -2.907,2.005 -8.618,4.7 -14.263,2.496 -16.674,-1.134 -2.235,-3.365 -1.765,-7.775 1.071,-10.035 1.59,-1.268 7.254,-4.18 18.423,5.678 1.283,-1.57 2.194,-3.467 2.76,-5.713 4.883,-19.411 -19.004,-56.288 -19.246,-56.658 -0.378,-0.579 -0.215,-1.356 0.364,-1.736 0.58,-0.378 1.357,-0.216 1.737,0.364 1.012,1.551 24.726,38.178 19.577,58.642 -0.665,2.645 -1.785,4.916 -3.35,6.796 0.805,0.773 1.637,1.608 2.495,2.511 15.778,16.602 12.12,34.632 2.043,44.363 -4.575,4.416 -10.759,7.254 -17.09,7.254 z m -3.216,-60.459 c -1.227,0 -2.206,0.339 -2.933,0.918 -1.797,1.433 -2.041,4.432 -0.545,6.686 2.326,3.503 7.327,3.621 13.381,0.32 0.82,-0.448 1.57,-0.95 2.25,-1.512 -5.286,-4.656 -9.361,-6.412 -12.153,-6.412 z"
   id="path53" />
			<path
   style="fill:#988192"
   d="m 630.635,408.792 c 10.882,28.452 -0.233,59.14 -24.827,68.549 -24.592,9.406 -53.351,-6.032 -64.233,-34.483 -10.884,-28.449 0.232,-59.142 24.825,-68.547 24.593,-9.409 53.351,6.03 64.235,34.481 z"
   id="path54" />
			<polygon
   style="fill:#988192"
   points="610.631,466.465 614.697,481.964 625.707,472.88 "
   id="polygon54" />
			<path
   style="fill:#74487a"
   d="m 605.445,386.965 c 0,0 -5.334,16.294 1.881,33.545 7.214,17.251 -6.273,50.813 -33.562,39.835 -27.29,-10.978 -21.016,-13.487 -24.151,-12.232 -3.139,1.254 9.723,19.412 23.838,24.448 14.113,5.036 30.228,5.054 38.78,0 l 3.602,3.783 5.922,-2.13 -5.922,-5.536 c 0,0 10.626,-7.788 14.391,-22.332 l -5.961,-4.194 4.393,-4.076 c -10e-4,-0.001 -23.211,-14.116 -23.211,-51.111 z"
   id="path55" />
			<path
   style="fill:#fffaef"
   d="m 557.376,384.156 c 0,0 22.832,-19.512 44.348,-4.457 21.516,15.056 -14.692,-5.421 -24.887,-0.467 -10.193,4.953 -30.512,11.583 -19.461,4.924 z"
   id="path56" />
			<path
   style="fill:#fffaef"
   d="m 549.136,390.657 c 0,0 -6.564,6.686 -4.842,8.8 1.724,2.115 15.715,-13.106 4.842,-8.8 z"
   id="path57" />
		</g><g
     clip-path="url(#SVGID_00000120556350596265205750000016078548296908929721_)"
     id="g62"
     transform="matrix(0.82826449,0,0,0.82826449,1080.7781,-324.37366)">
			<path
   style="fill:#fffaef"
   d="m 666.174,550.172 c -0.034,0 -0.069,-0.002 -0.104,-0.005 -9.825,-0.805 -17.963,-6.823 -23.535,-17.405 -4.606,-8.747 -7.064,-19.951 -6.74,-30.742 0.26,-8.719 2.342,-15.563 5.686,-19.532 -8.668,-10.462 -11.444,-24.979 -8.024,-42.121 2.673,-13.405 8.083,-23.543 8.311,-23.97 0.327,-0.608 1.089,-0.837 1.698,-0.51 0.61,0.33 0.839,1.09 0.512,1.7 -0.214,0.394 -20.555,38.926 -0.698,63.138 1.651,-1.309 3.531,-2.029 5.59,-2.074 8.317,-0.184 10.266,2.416 10.683,3.981 0.475,1.776 -0.599,3.678 -2.737,4.845 -3.49,1.907 -9.011,1.636 -13.683,-3.129 -2.818,3.515 -4.59,9.75 -4.828,17.748 -0.307,10.217 2.107,21.246 6.451,29.497 3.593,6.823 10.244,15.148 21.521,16.073 0.689,0.057 1.203,0.663 1.147,1.353 -0.056,0.657 -0.605,1.153 -1.25,1.153 z M 644.922,482.59 c 4.274,4.371 8.701,3.768 10.69,2.685 1.053,-0.576 1.675,-1.396 1.516,-1.995 -0.227,-0.849 -2.204,-2.24 -8.205,-2.12 -1.45,0.032 -2.793,0.525 -4.001,1.43 z"
   id="path59" />
			<path
   style="fill:#afd2aa"
   d="m 700.576,408.564 c -13.801,27.156 -44.017,39.5 -67.49,27.571 -23.475,-11.929 -31.315,-43.613 -17.517,-70.77 13.802,-27.156 44.017,-39.5 67.492,-27.571 23.474,11.929 31.314,43.613 17.515,70.77 z"
   id="path60" />
			<polygon
   style="fill:#afd2aa"
   points="638.378,431.801 626.707,442.779 639.946,448.112 "
   id="polygon60" />
			<path
   style="fill:#93c7a9"
   d="m 617.677,364.991 c 0,0 5.646,41.403 23.838,50.5 18.192,9.097 41.403,3.001 46.108,1.5 4.704,-1.5 -12.547,18.968 -31.679,19.714 -19.134,0.742 -17.094,0 -17.094,0 l -0.785,7.643 -6.9,-2.196 4.399,-5.446 c 0,-0.001 -36.393,-21.843 -17.887,-71.715 z"
   id="path61" />
			<path
   style="fill:#fffaef"
   d="m 670.601,339.291 c 0,0 24.189,7.942 29.965,26.716 5.776,18.772 -0.723,36.823 -3.972,35.74 -3.249,-1.083 5.415,-25.904 -3.249,-37.681 -8.664,-11.778 -27,-26.481 -22.744,-24.775 z"
   id="path62" />
		</g><g
     clip-path="url(#SVGID_00000120556350596265205750000016078548296908929721_)"
     id="g67"
     transform="matrix(0.82826449,0,0,0.82826449,1080.7781,-324.37366)">
			<path
   style="fill:#fffaef"
   d="m 686.383,265.29 c -5.316,0 -10.738,-2.002 -15.398,-6.753 -0.484,-0.495 -0.477,-1.289 0.018,-1.774 0.494,-0.484 1.289,-0.477 1.773,0.018 9.484,9.671 21.657,6.494 28.955,-0.552 9.214,-8.895 12.481,-25.467 -2.118,-40.828 -0.835,-0.878 -1.647,-1.694 -2.433,-2.448 -0.874,0.756 -1.844,1.425 -2.907,2.005 -8.618,4.7 -14.263,2.496 -16.674,-1.134 -2.235,-3.365 -1.765,-7.775 1.071,-10.035 1.59,-1.268 7.254,-4.18 18.423,5.678 1.283,-1.57 2.194,-3.467 2.76,-5.713 4.883,-19.411 -19.004,-56.288 -19.246,-56.658 -0.378,-0.579 -0.215,-1.356 0.364,-1.736 0.58,-0.378 1.357,-0.216 1.737,0.364 1.012,1.551 24.726,38.178 19.577,58.643 -0.665,2.645 -1.785,4.916 -3.35,6.796 0.805,0.773 1.637,1.607 2.495,2.511 15.778,16.602 12.12,34.632 2.043,44.363 -4.575,4.415 -10.759,7.253 -17.09,7.253 z m -3.216,-60.459 c -1.227,0 -2.206,0.339 -2.933,0.918 -1.797,1.433 -2.041,4.432 -0.545,6.686 2.326,3.503 7.327,3.621 13.381,0.32 0.82,-0.448 1.57,-0.95 2.25,-1.512 -5.287,-4.656 -9.361,-6.412 -12.153,-6.412 z"
   id="path63" />
			<path
   style="fill:#e9c09a"
   d="m 706.191,98.205 c 10.882,28.452 -0.233,59.14 -24.827,68.549 -24.592,9.406 -53.351,-6.032 -64.233,-34.483 -10.884,-28.449 0.231,-59.142 24.825,-68.547 24.594,-9.409 53.352,6.03 64.235,34.481 z"
   id="path64" />
			<polygon
   style="fill:#e9c09a"
   points="686.188,155.878 690.254,171.377 701.264,162.293 "
   id="polygon64" />
			<path
   style="fill:#e19b81"
   d="m 681.002,76.378 c 0,0 -5.334,16.294 1.881,33.545 7.214,17.251 -6.273,50.813 -33.562,39.835 -27.29,-10.979 -21.016,-13.487 -24.151,-12.232 -3.139,1.254 9.723,19.412 23.838,24.448 14.113,5.036 30.229,5.054 38.78,0 l 3.602,3.783 5.922,-2.13 -5.922,-5.536 c 0,0 10.626,-7.788 14.391,-22.332 l -5.961,-4.194 4.393,-4.076 c -10e-4,-0.001 -23.211,-14.116 -23.211,-51.111 z"
   id="path65" />
			<path
   style="fill:#fffaef"
   d="m 632.933,73.569 c 0,0 22.832,-19.512 44.348,-4.457 21.516,15.056 -14.692,-5.421 -24.887,-0.467 -10.194,4.953 -30.512,11.583 -19.461,4.924 z"
   id="path66" />
			<path
   style="fill:#fffaef"
   d="m 624.692,80.07 c 0,0 -6.565,6.686 -4.842,8.8 1.724,2.115 15.715,-13.106 4.842,-8.8 z"
   id="path67" />
		</g><g
     clip-path="url(#SVGID_00000120556350596265205750000016078548296908929721_)"
     id="g71"
     transform="matrix(0.82826449,0,0,0.82826449,1080.7781,-324.37366)">
			<path
   style="fill:#fffaef"
   d="m 741.731,239.585 c -0.034,0 -0.069,-0.002 -0.104,-0.005 -9.825,-0.805 -17.963,-6.823 -23.535,-17.405 -4.606,-8.747 -7.063,-19.951 -6.74,-30.742 0.26,-8.719 2.342,-15.563 5.686,-19.532 -8.668,-10.462 -11.444,-24.979 -8.024,-42.121 2.673,-13.405 8.083,-23.543 8.312,-23.97 0.327,-0.608 1.089,-0.837 1.698,-0.51 0.61,0.33 0.839,1.09 0.512,1.7 -0.214,0.394 -20.555,38.926 -0.698,63.138 1.651,-1.309 3.531,-2.029 5.59,-2.074 8.317,-0.184 10.266,2.416 10.683,3.981 0.475,1.776 -0.599,3.678 -2.737,4.845 -3.49,1.907 -9.011,1.636 -13.683,-3.129 -2.818,3.515 -4.59,9.75 -4.828,17.748 -0.307,10.217 2.106,21.246 6.451,29.497 3.593,6.823 10.244,15.148 21.522,16.073 0.689,0.057 1.203,0.663 1.147,1.354 -0.058,0.656 -0.607,1.152 -1.252,1.152 z m -21.252,-67.582 c 4.274,4.371 8.701,3.768 10.69,2.685 1.053,-0.576 1.675,-1.395 1.516,-1.995 -0.227,-0.849 -2.204,-2.24 -8.205,-2.12 -1.451,0.032 -2.793,0.525 -4.001,1.43 z"
   id="path68" />
			<path
   style="fill:#afd2aa"
   d="m 776.133,97.977 c -13.801,27.156 -44.017,39.5 -67.49,27.571 -23.475,-11.929 -31.316,-43.613 -17.517,-70.77 13.802,-27.156 44.017,-39.5 67.492,-27.571 23.474,11.929 31.314,43.613 17.515,70.77 z"
   id="path69" />
			<polygon
   style="fill:#afd2aa"
   points="713.935,121.214 702.264,132.192 715.503,137.525 "
   id="polygon69" />
			<path
   style="fill:#93c7a9"
   d="m 693.233,54.404 c 0,0 5.647,41.403 23.838,50.5 18.191,9.097 41.403,3.001 46.107,1.5 4.704,-1.5 -12.547,18.968 -31.679,19.714 -19.134,0.742 -17.094,0 -17.094,0 l -0.785,7.642 -6.9,-2.196 4.399,-5.446 c 10e-4,0 -36.391,-21.842 -17.886,-71.714 z"
   id="path70" />
			<path
   style="fill:#fffaef"
   d="m 746.157,28.704 c 0,0 24.188,7.942 29.965,26.716 5.776,18.772 -0.723,36.823 -3.972,35.74 -3.249,-1.083 5.415,-25.904 -3.249,-37.681 -8.664,-11.778 -27,-26.481 -22.744,-24.775 z"
   id="path71" />
		</g></g>
	</g>


</svg>
