<?xml version="1.0" encoding="UTF-8" standalone="no"?>
<!-- Generator: Adobe Illustrator 27.5.0, SVG Export Plug-In . SVG Version: 6.00 Build 0)  -->

<svg
   version="1.1"
   x="0px"
   y="0px"
   viewBox="0 0 213.2961 317.10815"
   xml:space="preserve"
   id="svg114"
   width="213.2961"
   height="317.10815"
   xmlns:xlink="http://www.w3.org/1999/xlink"
   xmlns="http://www.w3.org/2000/svg"
   xmlns:svg="http://www.w3.org/2000/svg"><defs
   id="defs114"><clipPath
     id="SVGID_00000120556350596265205750000016078548296908929721_-9">
			<use
   xlink:href="#SVGID_1_"
   style="overflow:visible"
   id="use1-1" />
		</clipPath></defs>
<g
   id="g111"
   transform="translate(-1183.3888,512.30514)">
		<defs
   id="defs1"><rect
     id="SVGID_1_"
     width="750"
     height="500"
     x="0"
     y="0" /></defs>
		<clipPath
   id="SVGID_00000120556350596265205750000016078548296908929721_">
			<use
   xlink:href="#SVGID_1_"
   style="overflow:visible"
   id="use1" />
		</clipPath>
		
			
		
		
		
		
		
		
		
		
		
		
		
		
		
		
		
		
		
		
		
		
		
		
		
		
		
		
		
		
		
		
		
	<g
   clip-path="url(#SVGID_00000120556350596265205750000016078548296908929721_-9)"
   id="g110"
   transform="rotate(180,832.51828,-25.11007)">
			<path
   style="fill:#fffaef"
   d="m 375.493,374.165 c -0.643,0 -1.164,-0.521 -1.164,-1.164 V 257.635 c 0,-0.642 0.521,-1.164 1.164,-1.164 0.643,0 1.165,0.522 1.165,1.164 v 115.366 c 0,0.643 -0.521,1.164 -1.165,1.164 z"
   id="path82" />
			<path
   style="fill:#fffaef"
   d="m 375.494,374.165 c -0.443,0 -0.867,-0.254 -1.06,-0.684 l -44.262,-97.656 c -0.266,-0.588 -0.006,-1.276 0.58,-1.542 0.586,-0.265 1.275,-0.006 1.541,0.581 l 44.262,97.656 c 0.266,0.585 0.006,1.275 -0.58,1.54 -0.157,0.073 -0.321,0.105 -0.481,0.105 z"
   id="path83" />
			<path
   style="fill:#fffaef"
   d="m 375.493,374.165 c -0.187,0 -0.376,-0.044 -0.552,-0.139 -0.566,-0.304 -0.778,-1.009 -0.475,-1.575 l 52.414,-97.658 c 0.305,-0.566 1.01,-0.78 1.577,-0.475 0.566,0.305 0.78,1.01 0.477,1.576 l -52.415,97.657 c -0.209,0.393 -0.611,0.614 -1.026,0.614 z"
   id="path84" />
			<path
   style="fill:#fffaef"
   d="m 375.494,374.165 c -0.114,0 -0.231,-0.017 -0.346,-0.052 -0.615,-0.192 -0.958,-0.844 -0.767,-1.459 l 41.052,-131.799 c 0.192,-0.614 0.843,-0.957 1.46,-0.767 0.613,0.193 0.955,0.846 0.764,1.46 l -41.052,131.799 c -0.155,0.499 -0.615,0.818 -1.111,0.818 z"
   id="path85" />
			<path
   style="fill:#fffaef"
   d="m 375.493,374.165 c -0.543,0 -1.028,-0.38 -1.142,-0.93 l -22.129,-107.88 c -0.13,-0.632 0.276,-1.247 0.906,-1.375 0.631,-0.13 1.246,0.275 1.375,0.905 l 22.13,107.882 c 0.13,0.63 -0.275,1.244 -0.907,1.374 -0.078,0.017 -0.156,0.024 -0.233,0.024 z"
   id="path86" />
			<path
   style="fill:#e9c09a"
   d="m 463.629,201.91 c -3.73,28.033 -26.396,48.143 -50.627,44.919 -24.232,-3.223 -40.851,-28.562 -37.123,-56.593 3.73,-28.032 26.397,-48.143 50.628,-44.92 24.23,3.223 40.85,28.562 37.122,56.594 z"
   id="path87" />
			<path
   style="fill:#988192"
   d="m 389.015,187.004 c 5.794,27.678 -8.904,54.176 -32.829,59.187 -23.926,5.009 -48.018,-13.371 -53.814,-41.048 -5.794,-27.678 8.905,-54.177 32.831,-59.188 23.924,-5.009 48.018,13.37 53.812,41.049 z"
   id="path88" />
			<path
   style="fill:#f0afb6"
   d="m 354.91,231.044 c 10.102,26.413 -0.216,54.903 -23.047,63.638 -22.832,8.733 -49.53,-5.601 -59.633,-32.014 -10.104,-26.413 0.215,-54.903 23.047,-63.636 22.832,-8.733 49.53,5.6 59.633,32.012 z"
   id="path89" />
			<path
   style="fill:#afd2aa"
   d="m 475.327,266.907 c -12.813,25.212 -40.863,36.671 -62.655,25.597 -21.792,-11.074 -29.072,-40.488 -16.261,-65.699 12.812,-25.211 40.864,-36.67 62.656,-25.596 21.791,11.073 29.071,40.488 16.26,65.698 z"
   id="path90" />
			<path
   style="fill:#badace"
   d="m 419.617,233.101 c 0,28.279 -19.816,51.205 -44.26,51.205 -24.445,0 -44.262,-22.926 -44.262,-51.205 0,-28.278 19.816,-51.203 44.262,-51.203 24.444,0 44.26,22.924 44.26,51.203 z"
   id="path91" />
			<polygon
   style="fill:#f0afb6"
   points="348.317,296.726 331.096,280.684 332.711,306.979 "
   id="polygon91" />
			<polygon
   style="fill:#badace"
   points="384.727,293.086 374.867,268.279 365.986,293.086 "
   id="polygon92" />
			<polygon
   style="fill:#afd2aa"
   points="425.458,307.174 424.835,280.486 407.887,300.659 "
   id="polygon93" />
			<path
   style="fill:#fffaef"
   d="m 414.372,220.736 c 0,0 -9.89,-29.476 -31.114,-34.391 -21.227,-4.913 9.953,10.226 17.194,15.967 9.872,7.827 12.47,30.12 14.517,27.842 2.048,-2.275 0.877,-5.662 -0.597,-9.418 z"
   id="path93" />
			<path
   style="fill:#fffaef"
   d="m 387.816,377.112 c -3.974,0 -8.19,-0.404 -12.533,-1.199 -0.411,-0.076 -0.751,-0.365 -0.89,-0.762 -0.138,-0.395 -0.055,-0.833 0.222,-1.147 0.594,-0.685 14.689,-16.734 26.067,-16.734 3.241,0 5.964,1.279 8.094,3.803 2.038,2.413 2.521,5.115 1.362,7.613 -2.376,5.12 -11.139,8.426 -22.322,8.426 z m -10.01,-3.135 c 3.462,0.536 6.819,0.806 10.011,0.806 11.69,0 18.572,-3.556 20.209,-7.078 0.778,-1.674 0.432,-3.4 -1.028,-5.129 -1.691,-2.004 -3.756,-2.975 -6.315,-2.975 -8.376,0 -19.059,10.368 -22.877,14.376 z"
   id="path94" />
			<path
   style="fill:#fffaef"
   d="m 363.516,377.112 v 0 c -11.184,0 -19.945,-3.309 -22.322,-8.427 -1.16,-2.498 -0.676,-5.2 1.361,-7.613 2.13,-2.523 4.854,-3.803 8.094,-3.803 11.379,0 25.474,16.05 26.068,16.734 0.275,0.314 0.358,0.753 0.222,1.147 -0.139,0.397 -0.478,0.686 -0.891,0.762 -4.341,0.796 -8.559,1.2 -12.532,1.2 z m -12.868,-17.511 c -2.559,0 -4.623,0.971 -6.313,2.975 -1.46,1.729 -1.807,3.455 -1.03,5.129 1.637,3.522 8.521,7.078 20.211,7.078 3.189,0 6.548,-0.27 10.008,-0.806 -3.819,-4.008 -14.508,-14.376 -22.876,-14.376 z"
   id="path95" />
			<path
   style="fill:#fffaef"
   d="m 358.791,434.594 c -1.264,0 -2.592,-0.183 -3.98,-0.548 -8.141,-2.149 -10.238,-6.09 -10.566,-9.02 -0.447,-4.002 2.324,-7.977 5.262,-9.508 1.781,-0.929 3.467,-0.879 4.627,0.14 1.609,1.417 2.318,2.84 2.103,4.23 -0.296,1.908 -2.188,2.792 -2.403,2.885 -0.59,0.262 -1.277,-0.009 -1.535,-0.598 -0.258,-0.586 0.007,-1.271 0.592,-1.531 0.247,-0.114 0.963,-0.561 1.045,-1.117 0.08,-0.538 -0.397,-1.29 -1.34,-2.118 -0.562,-0.495 -1.594,-0.043 -2.011,0.174 -2.193,1.144 -4.356,4.215 -4.023,7.185 0.353,3.161 3.411,5.593 8.845,7.025 3.582,0.944 6.512,0.487 8.957,-1.395 8.76,-6.749 9.968,-30.725 9.968,-55.632 0,-0.643 0.521,-1.164 1.164,-1.164 0.643,0 1.165,0.521 1.165,1.164 0,29.47 -1.849,50.522 -10.875,57.476 -2.035,1.566 -4.376,2.352 -6.995,2.352 z"
   id="path96" />
			<path
   style="fill:#fffaef"
   d="m 359.879,462.085 c -2.922,0.002 -5.622,-1.195 -7.422,-3.426 -2.641,-3.27 -3.408,-5.729 -2.348,-7.514 1.76,-2.965 7.712,-2.051 8.887,-1.838 0.633,0.115 1.053,0.722 0.938,1.353 -0.114,0.634 -0.721,1.055 -1.353,0.939 -2.198,-0.394 -5.775,-0.436 -6.47,0.735 -0.176,0.296 -0.537,1.523 2.158,4.861 1.953,2.42 5.377,3.207 8.721,1.999 5.615,-2.024 11.542,-9.851 11.339,-25.749 -0.288,-22.4 -0.003,-48.286 0,-48.545 0.007,-0.645 0.524,-1.166 1.178,-1.151 0.643,0.007 1.158,0.534 1.151,1.179 -0.003,0.257 -0.287,26.115 0,48.488 0.276,21.546 -9.787,26.856 -12.878,27.97 -1.304,0.472 -2.624,0.699 -3.901,0.699 z"
   id="path97" />
			<path
   style="fill:#f58981"
   d="m 331.232,212.422 c 0,0 -6.68,11.914 -4.06,30.549 2.621,18.637 6.544,28.537 -2.038,33.196 -8.582,4.661 -28.246,12.814 -48.92,-13.395 0,0 5.025,21.557 24.895,27.953 19.869,6.4 31.888,0 31.888,0 l 1.534,10.193 9.531,-5.861 -7.95,-6.077 c 0,0 12.627,-8.072 13.773,-11.357 0,0 -16.05,-15.143 -18.653,-25.044 -2.603,-9.899 0,-40.157 0,-40.157 z"
   id="path98" />
			<path
   style="fill:#fffaef"
   d="m 333.471,205.664 c 0,0 -13.96,-7.974 -27.646,-5.936 -13.686,2.039 -16.889,5.315 -13.686,5.861 3.204,0.545 20.867,-7.607 39.602,2.874 3.543,1.984 4.561,-1.383 1.73,-2.799 z"
   id="path99" />
			<path
   style="fill:#74487a"
   d="m 321.059,154.45 c 0,0 -9.901,17.914 -9.318,27.448 0.582,9.534 27.967,15.089 27.967,15.089 l -3.595,7.248 c 0,0 -18.549,-12.255 -33.399,-8.161 -10e-4,-0.001 -10e-4,-29.103 18.345,-41.624 z"
   id="path100" />
			<path
   style="fill:#fffaef"
   d="m 338.275,150.604 c 0,0 5.324,-4.03 15.281,-1.24 10.765,3.017 23.67,13.056 21.801,15.319 -1.867,2.262 -12.547,-11.062 -23.228,-12.318 -6.151,-0.726 -19.594,-0.053 -13.854,-1.761 z"
   id="path101" />
			<path
   style="fill:#fffaef"
   d="m 378.423,167.722 c 0,0 3.202,6.097 2.329,8.134 -0.873,2.039 -7.727,-10.785 -2.329,-8.134 z"
   id="path102" />
			<path
   style="fill:#93c7a9"
   d="m 419.617,250.931 c 0,0 4.521,20.19 14.617,26.791 10.095,6.599 32.269,-3.107 29.917,0 -2.352,3.106 -17.892,19.796 -42.346,16.108 l 0.392,9.514 -8.151,-6.102 2.627,-5.319 c 0,0 -7.287,-1.583 -16.217,-13.037 0,0 16.193,-8.542 19.161,-27.955 z"
   id="path103" />
			<path
   style="fill:#8fc8cb"
   d="m 337.559,214.046 c 0,0 -7.065,34.856 22.869,46.159 29.934,11.303 49.145,-3.993 53.497,-9.274 4.351,-5.28 -6.644,25.726 -34.127,29.753 l 3.576,8.997 h -14.357 l 4.261,-8.997 c 0,0 -16.207,-0.371 -27.916,-15.388 -11.71,-15.016 -14.404,-42.708 -7.803,-51.25 z"
   id="path104" />
			<path
   style="fill:#e19b81"
   d="m 400.456,154.45 c 0,0 -10.175,29.883 25.002,42.022 0,0 -6.983,4.627 -10.611,7.763 0,0 -11.877,-19.449 -24.568,-20.86 0,0 -3.031,-8.892 -5.551,-13.765 -0.001,-0.001 8.351,-11.859 15.728,-15.16 z"
   id="path105" />
			<path
   style="fill:#fffaef"
   d="m 397.141,412.091 c -4.476,0 -8.7,-1.823 -12.281,-5.315 -6.891,-6.721 -11.024,-19.303 -10.529,-32.054 0.023,-0.643 0.582,-1.159 1.209,-1.117 0.642,0.023 1.143,0.564 1.118,1.207 -0.47,12.123 3.389,24.015 9.828,30.296 3.426,3.34 7.315,4.898 11.566,4.625 7.1,-0.452 9.915,-4.44 10.186,-8.021 0.234,-3.136 -1.415,-5.987 -3.758,-6.495 -1.411,-0.308 -2.497,-0.136 -3.319,0.527 -1.832,1.473 -1.868,4.88 -1.868,4.915 -0.004,0.642 -0.524,1.162 -1.165,1.162 h -0.003 c -0.643,-0.002 -1.163,-0.522 -1.163,-1.164 0,-0.186 0.031,-4.546 2.732,-6.724 1.388,-1.119 3.164,-1.454 5.281,-0.995 3.51,0.762 5.911,4.609 5.585,8.947 -0.341,4.559 -3.768,9.625 -12.357,10.173 -0.356,0.023 -0.711,0.033 -1.062,0.033 z"
   id="path106" />
			<path
   style="fill:#fffaef"
   d="m 396.695,444.16 c -0.23,0 -0.465,-0.002 -0.702,-0.007 -14.582,-0.32 -21.306,-38.727 -21.664,-59.218 -0.011,-0.645 0.501,-1.175 1.144,-1.185 0.008,0 0.016,0 0.021,0 0.634,0 1.152,0.507 1.163,1.144 0.413,23.604 7.99,56.682 19.388,56.932 6.945,0.165 10.495,-2.146 10.934,-4.488 0.23,-1.229 -0.487,-2.307 -1.873,-2.811 -1.387,-0.503 -2.514,-0.549 -3.259,-0.126 -0.811,0.457 -1.022,1.367 -1.023,1.376 -0.125,0.632 -0.733,1.044 -1.368,0.918 -0.631,-0.122 -1.043,-0.736 -0.919,-1.366 0.039,-0.201 0.433,-1.978 2.164,-2.958 1.375,-0.775 3.125,-0.786 5.2,-0.032 2.457,0.893 3.81,3.074 3.368,5.43 -0.56,2.984 -4.196,6.391 -12.574,6.391 z"
   id="path107" />
			<path
   style="fill:#fffaef"
   d="m 476.141,235.863 c 0,0 -0.047,-2.532 -0.662,-6.199 -1.324,-7.868 -5.274,-20.959 -17.012,-25.465 -17.211,-6.606 7.422,9.263 9.081,18.375 1.661,9.112 9.255,19.47 8.593,13.289 z"
   id="path108" />
			<path
   style="fill:#fffaef"
   d="m 477.984,245.145 c 0,0 2.91,11.282 -2.427,12.058 -5.336,0.778 1.794,-15.641 2.427,-12.058 z"
   id="path109" />
			<path
   style="fill:#fffaef"
   d="m 412.218,150.809 c 0,0 12.281,-3.35 26.79,3.641 14.508,6.991 19.411,22.04 19.411,27.448 0,5.408 -10.093,-15.946 -17.083,-20.605 -6.988,-4.66 -38.776,-9.732 -29.118,-10.484 z"
   id="path110" />
		</g></g>


</svg>
