<?xml version="1.0" encoding="UTF-8" standalone="no"?>
<!-- Generator: Adobe Illustrator 27.5.0, SVG Export Plug-In . SVG Version: 6.00 Build 0)  -->

<svg
   version="1.1"
   x="0px"
   y="0px"
   viewBox="0 0 749.99414 478.87894"
   xml:space="preserve"
   id="svg114"
   width="749.99414"
   height="478.87894"
   xmlns:xlink="http://www.w3.org/1999/xlink"
   xmlns="http://www.w3.org/2000/svg"
   xmlns:svg="http://www.w3.org/2000/svg"><defs
   id="defs114"><clipPath
     id="SVGID_00000120556350596265205750000016078548296908929721_-8">
			<use
   xlink:href="#SVGID_1_"
   style="overflow:visible"
   id="use1-8" />
		</clipPath><clipPath
     id="SVGID_00000120556350596265205750000016078548296908929721_-5">
			<use
   xlink:href="#SVGID_1_"
   style="overflow:visible"
   id="use1-9" />
		</clipPath><clipPath
     id="SVGID_00000120556350596265205750000016078548296908929721_-22">
			<use
   xlink:href="#SVGID_1_"
   style="overflow:visible"
   id="use1-4" />
		</clipPath><clipPath
     id="SVGID_00000120556350596265205750000016078548296908929721_-54">
			<use
   xlink:href="#SVGID_1_"
   style="overflow:visible"
   id="use1-81" />
		</clipPath></defs>
<g
   id="g111"
   transform="translate(86.70765,137.09793)">
		<defs
   id="defs1"><rect
     id="SVGID_1_"
     width="750"
     height="500"
     x="0"
     y="0" /></defs>
		<clipPath
   id="SVGID_00000120556350596265205750000016078548296908929721_">
			<use
   xlink:href="#SVGID_1_"
   style="overflow:visible"
   id="use1" />
		</clipPath>
		
			
		
		
		
		
		
		
		
		
		
		
		
		
		
		
		
		
		
		
		
		
		
		
		
		
		
		
		
		
		
		
		
	<g
   id="g126"><path
     style="fill:#fffaef"
     d="m 569.935,70.582 c -2.91,0 -5.575,1.045 -7.642,2.776 -0.05,-6.534 -5.359,-11.817 -11.905,-11.817 -1.346,0 -2.638,0.227 -3.846,0.638 0.012,-0.212 0.017,-0.423 0.017,-0.638 0,-6.576 -5.33,-11.907 -11.905,-11.907 -6.577,0 -11.907,5.331 -11.907,11.907 0,1.945 0.469,3.778 1.295,5.401 l -0.358,0.084 c -0.738,-5.869 -5.741,-10.409 -11.81,-10.409 -6.576,0 -11.907,5.331 -11.907,11.907 0,1.32 0.22,2.589 0.615,3.776 -1.797,-1.09 -3.906,-1.717 -6.162,-1.717 -6.577,0 -11.907,5.331 -11.907,11.907 0,6.577 5.33,11.907 11.907,11.907 h 74.956 l -0.004,-0.014 c 0.186,0.008 0.372,0.014 0.563,0.014 6.574,0 11.907,-5.331 11.907,-11.907 10e-4,-6.576 -5.332,-11.908 -11.907,-11.908 z"
     clip-path="url(#SVGID_00000120556350596265205750000016078548296908929721_)"
     id="path18"
     transform="translate(-149.63679,-80.01702)" /><path
     style="fill:#fffaef"
     d="m 276.352,49.199 c -2.908,0 -5.572,1.045 -7.641,2.777 -0.049,-6.534 -5.358,-11.818 -11.905,-11.818 -1.346,0 -2.638,0.227 -3.845,0.639 0.012,-0.212 0.018,-0.424 0.018,-0.639 0,-6.575 -5.331,-11.906 -11.907,-11.906 -6.576,0 -11.907,5.331 -11.907,11.906 0,1.945 0.471,3.779 1.297,5.401 l -0.357,0.083 c -0.738,-5.869 -5.742,-10.409 -11.811,-10.409 -6.576,0 -11.907,5.331 -11.907,11.907 0,1.32 0.218,2.588 0.615,3.776 -1.798,-1.09 -3.907,-1.718 -6.163,-1.718 -6.576,0 -11.908,5.332 -11.908,11.907 0,6.577 5.332,11.908 11.908,11.908 h 74.956 L 275.791,73 c 0.186,0.008 0.373,0.014 0.561,0.014 6.576,0 11.907,-5.331 11.907,-11.908 0,-6.575 -5.331,-11.907 -11.907,-11.907 z"
     clip-path="url(#SVGID_00000120556350596265205750000016078548296908929721_)"
     id="path28"
     transform="translate(-86.71353,-158.219)" /><path
     style="fill:#fffaef"
     d="m 662.681,156.673 c -2.91,0 -5.575,1.043 -7.642,2.775 -0.048,-6.534 -5.359,-11.817 -11.905,-11.817 -1.345,0 -2.638,0.227 -3.846,0.638 0.012,-0.211 0.018,-0.424 0.018,-0.638 0,-6.576 -5.33,-11.907 -11.905,-11.907 -6.577,0 -11.907,5.331 -11.907,11.907 0,1.945 0.469,3.779 1.295,5.401 l -0.357,0.084 c -0.738,-5.868 -5.741,-10.409 -11.81,-10.409 -6.577,0 -11.908,5.332 -11.908,11.908 0,1.32 0.22,2.588 0.617,3.776 -1.799,-1.09 -3.908,-1.717 -6.164,-1.717 -6.577,0 -11.907,5.33 -11.907,11.906 0,6.577 5.33,11.907 11.907,11.907 h 74.956 l -0.004,-0.014 c 0.186,0.008 0.374,0.014 0.563,0.014 6.574,0 11.907,-5.33 11.907,-11.907 -0.001,-6.577 -5.334,-11.907 -11.908,-11.907 z"
     clip-path="url(#SVGID_00000120556350596265205750000016078548296908929721_)"
     id="path39"
     transform="translate(-56.193334,-143.72552)" /><path
     id="path39-7"
     clip-path="url(#SVGID_00000120556350596265205750000016078548296908929721_-22)"
     style="fill:#fffaef"
     d="m 581.50286,158.1055 h 11.2793 c -1.67644,-0.90039 -3.57973,-1.43164 -5.61524,-1.43164 -2.05065,0 -3.97962,0.51913 -5.66406,1.43164 z"
     transform="translate(-179.46053,183.6755)" /><path
     id="path120"
     clip-path="url(#SVGID_00000120556350596265205750000016078548296908929721_-22)"
     style="fill:#fffaef"
     d="m 657.03411,158.1055 h 11.31445 c -1.68533,-0.91383 -3.6167,-1.43164 -5.66797,-1.43164 -2.04628,0 -3.96523,0.52325 -5.64648,1.43164 z"
     transform="translate(-179.46053,183.6755)" /><path
     style="fill:#fffaef"
     d="m 536.096,259.46 c -3.714,0 -7.116,1.333 -9.756,3.545 -0.062,-8.343 -6.841,-15.088 -15.198,-15.088 -1.718,0 -3.367,0.289 -4.908,0.814 0.014,-0.27 0.022,-0.539 0.022,-0.814 0,-8.395 -6.806,-15.201 -15.201,-15.201 -8.395,0 -15.2,6.806 -15.2,15.201 0,2.483 0.599,4.824 1.653,6.894 l -0.455,0.107 c -0.942,-7.492 -7.331,-13.287 -15.079,-13.287 -8.395,0 -15.2,6.806 -15.2,15.2 0,1.687 0.279,3.306 0.785,4.821 -2.295,-1.392 -4.987,-2.192 -7.868,-2.192 -8.396,0 -15.202,6.806 -15.202,15.2 0,8.397 6.806,15.203 15.202,15.203 h 95.694 l -0.003,-0.018 c 0.236,0.01 0.475,0.018 0.715,0.018 8.395,0 15.202,-6.806 15.202,-15.203 -10e-4,-8.394 -6.809,-15.2 -15.203,-15.2 z"
     clip-path="url(#SVGID_00000120556350596265205750000016078548296908929721_)"
     id="path42"
     transform="translate(-73.72592,-105.43648)" /><path
     style="fill:#fffaef"
     d="m 311.176,204.152 c -2.91,0 -5.574,1.045 -7.641,2.777 -0.05,-6.534 -5.359,-11.818 -11.906,-11.818 -1.346,0 -2.638,0.227 -3.844,0.638 0.011,-0.211 0.017,-0.422 0.017,-0.638 0,-6.576 -5.331,-11.906 -11.907,-11.906 -6.576,0 -11.906,5.331 -11.906,11.906 0,1.945 0.469,3.779 1.296,5.401 l -0.357,0.083 c -0.738,-5.869 -5.742,-10.408 -11.81,-10.408 -6.577,0 -11.908,5.331 -11.908,11.906 0,1.32 0.219,2.589 0.615,3.776 -1.798,-1.09 -3.907,-1.717 -6.164,-1.717 -6.576,0 -11.906,5.331 -11.906,11.906 0,6.577 5.33,11.909 11.906,11.909 h 74.957 l -0.003,-0.015 c 0.186,0.01 0.373,0.015 0.561,0.015 6.576,0 11.906,-5.331 11.906,-11.909 0,-6.576 -5.33,-11.906 -11.906,-11.906 z"
     clip-path="url(#SVGID_00000120556350596265205750000016078548296908929721_)"
     id="path48"
     transform="translate(-86.71353,-158.219)" /><path
     style="fill:#fffaef"
     d="m 311.176,204.152 c -2.91,0 -5.574,1.045 -7.641,2.777 -0.05,-6.534 -5.359,-11.818 -11.906,-11.818 -1.346,0 -2.638,0.227 -3.844,0.638 0.011,-0.211 0.017,-0.422 0.017,-0.638 0,-6.576 -5.331,-11.906 -11.907,-11.906 -6.576,0 -11.906,5.331 -11.906,11.906 0,1.945 0.469,3.779 1.296,5.401 l -0.357,0.083 c -0.738,-5.869 -5.742,-10.408 -11.81,-10.408 -6.577,0 -11.908,5.331 -11.908,11.906 0,1.32 0.219,2.589 0.615,3.776 -1.798,-1.09 -3.907,-1.717 -6.164,-1.717 -6.576,0 -11.906,5.331 -11.906,11.906 0,6.577 5.33,11.909 11.906,11.909 h 74.957 l -0.003,-0.015 c 0.186,0.01 0.373,0.015 0.561,0.015 6.576,0 11.906,-5.331 11.906,-11.909 0,-6.576 -5.33,-11.906 -11.906,-11.906 z"
     clip-path="url(#SVGID_00000120556350596265205750000016078548296908929721_-54)"
     id="path48-2"
     transform="translate(246.70827,-320.30293)" /><path
     style="fill:#fffaef"
     d="m 166.865,166.77 c -2.91,0 -5.574,1.045 -7.641,2.777 -0.05,-6.534 -5.359,-11.818 -11.906,-11.818 -1.346,0 -2.638,0.227 -3.844,0.638 0.011,-0.211 0.017,-0.422 0.017,-0.638 0,-6.576 -5.331,-11.906 -11.907,-11.906 -6.576,0 -11.906,5.331 -11.906,11.906 0,1.945 0.469,3.779 1.296,5.401 l -0.357,0.083 c -0.738,-5.869 -5.742,-10.408 -11.81,-10.408 -6.577,0 -11.908,5.331 -11.908,11.906 0,1.32 0.219,2.589 0.615,3.776 -1.798,-1.09 -3.907,-1.717 -6.164,-1.717 -6.576,0 -11.906,5.331 -11.906,11.906 0,6.577 5.33,11.909 11.906,11.909 h 74.957 l -0.003,-0.015 c 0.187,0.01 0.373,0.015 0.562,0.015 6.576,0 11.906,-5.331 11.906,-11.909 -0.001,-6.575 -5.331,-11.906 -11.907,-11.906 z"
     clip-path="url(#SVGID_00000120556350596265205750000016078548296908929721_)"
     id="path49"
     transform="translate(-99.94643,-176.20502)" /><path
     style="fill:#fffaef"
     d="m 556.461,357.651 c -3.712,0 -7.113,1.333 -9.753,3.545 -0.063,-8.343 -6.841,-15.088 -15.201,-15.088 -1.716,0 -3.367,0.288 -4.906,0.814 0.014,-0.27 0.022,-0.539 0.022,-0.814 0,-8.396 -6.806,-15.201 -15.2,-15.201 -8.397,0 -15.203,6.806 -15.203,15.201 0,2.482 0.602,4.824 1.655,6.897 l -0.455,0.104 c -0.944,-7.492 -7.331,-13.287 -15.078,-13.287 -8.396,0 -15.203,6.806 -15.203,15.2 0,1.685 0.279,3.305 0.785,4.822 -2.295,-1.393 -4.987,-2.193 -7.867,-2.193 -8.397,0 -15.203,6.806 -15.203,15.2 0,8.396 6.806,15.202 15.203,15.202 h 95.694 l -0.004,-0.019 c 0.238,0.011 0.477,0.019 0.715,0.019 8.397,0 15.203,-6.806 15.203,-15.202 -10e-4,-8.394 -6.807,-15.2 -15.204,-15.2 z"
     clip-path="url(#SVGID_00000120556350596265205750000016078548296908929721_)"
     id="path51"
     transform="translate(-30.68592,-87.18924)" /><path
     style="fill:#fffaef"
     d="m 292.439,341.43 c -3.713,0 -7.114,1.333 -9.754,3.545 -0.063,-8.343 -6.842,-15.088 -15.2,-15.088 -1.717,0 -3.367,0.289 -4.907,0.815 0.014,-0.27 0.022,-0.539 0.022,-0.815 0,-8.395 -6.806,-15.2 -15.201,-15.2 -8.395,0 -15.201,6.805 -15.201,15.2 0,2.483 0.6,4.824 1.654,6.895 l -0.455,0.106 c -0.943,-7.491 -7.331,-13.287 -15.078,-13.287 -8.396,0 -15.202,6.806 -15.202,15.2 0,1.685 0.278,3.306 0.785,4.821 -2.296,-1.392 -4.987,-2.192 -7.868,-2.192 -8.397,0 -15.202,6.806 -15.202,15.2 0,8.397 6.806,15.203 15.202,15.203 h 95.695 l -0.004,-0.02 c 0.237,0.012 0.475,0.02 0.715,0.02 8.396,0 15.203,-6.806 15.203,-15.203 -10e-4,-8.395 -6.808,-15.2 -15.204,-15.2 z"
     clip-path="url(#SVGID_00000120556350596265205750000016078548296908929721_)"
     id="path52"
     transform="translate(-79.18706,-139.44652)" /><path
     id="path52-8"
     clip-path="url(#SVGID_00000120556350596265205750000016078548296908929721_-8)"
     style="fill:#fffaef"
     d="m 244.2375,315.02145 c -6.87708,1.45534 -12.03906,7.55481 -12.03906,14.86523 0,2.483 0.6003,4.82354 1.65429,6.89454 l -0.45507,0.10742 c -0.943,-7.49099 -7.33114,-13.28711 -15.07813,-13.28711 -8.39599,0 -15.20312,6.80523 -15.20312,15.19922 0,1.685 0.27815,3.30531 0.78515,4.82031 -2.296,-1.392 -4.98619,-2.19141 -7.86718,-2.19141 -8.397,0 -15.20313,6.80718 -15.20313,15.20118 0,8.39699 6.80713,15.20312 15.20313,15.20312 h 48.20312 z"
     transform="translate(419.04897,-166.99631)" /><path
     id="path116"
     clip-path="url(#SVGID_00000120556350596265205750000016078548296908929721_-8)"
     style="fill:#fffaef"
     d="m 244.2375,315.02145 v 56.8125 h 47.49219 l -0.004,-0.0215 c 0.237,0.012 0.47485,0.0215 0.71485,0.0215 8.39599,0 15.20312,-6.80613 15.20312,-15.20312 -0.001,-8.395 -6.80909,-15.20118 -15.20508,-15.20118 -3.71299,0 -7.11391,1.33293 -9.7539,3.54493 -0.063,-8.343 -6.84123,-15.08789 -15.19922,-15.0879 -1.717,0 -3.36821,0.28846 -4.90821,0.81446 0.014,-0.27 0.0234,-0.53846 0.0234,-0.81446 0,-8.39499 -6.80618,-15.19921 -15.20117,-15.19921 -1.08456,0 -2.14184,0.11807 -3.16211,0.33398 z"
     transform="translate(-330.94502,-166.82932)" /><path
     style="fill:#fffaef"
     d="m 311.176,204.152 c -2.91,0 -5.574,1.045 -7.641,2.777 -0.05,-6.534 -5.359,-11.818 -11.906,-11.818 -1.346,0 -2.638,0.227 -3.844,0.638 0.011,-0.211 0.017,-0.422 0.017,-0.638 0,-6.576 -5.331,-11.906 -11.907,-11.906 -6.576,0 -11.906,5.331 -11.906,11.906 0,1.945 0.469,3.779 1.296,5.401 l -0.357,0.083 c -0.738,-5.869 -5.742,-10.408 -11.81,-10.408 -6.577,0 -11.908,5.331 -11.908,11.906 0,1.32 0.219,2.589 0.615,3.776 -1.798,-1.09 -3.907,-1.717 -6.164,-1.717 -6.576,0 -11.906,5.331 -11.906,11.906 0,6.577 5.33,11.909 11.906,11.909 h 74.957 l -0.003,-0.015 c 0.186,0.01 0.373,0.015 0.561,0.015 6.576,0 11.906,-5.331 11.906,-11.909 0,-6.576 -5.33,-11.906 -11.906,-11.906 z"
     clip-path="url(#SVGID_00000120556350596265205750000016078548296908929721_-5)"
     id="path48-46"
     transform="translate(-244.25693,102.018)" /></g></g>


</svg>
